frame:0    pts:0       pts_time:0
lavfi.signalstats.YMIN=8
lavfi.signalstats.YLOW=129
lavfi.signalstats.YAVG=181.674
lavfi.signalstats.YHIGH=196
lavfi.signalstats.YMAX=244
lavfi.signalstats.UMIN=110
lavfi.signalstats.ULOW=128
lavfi.signalstats.UAVG=130.228
lavfi.signalstats.UHIGH=132
lavfi.signalstats.UMAX=192
lavfi.signalstats.VMIN=38
lavfi.signalstats.VLOW=101
lavfi.signalstats.VAVG=123.024
lavfi.signalstats.VHIGH=128
lavfi.signalstats.VMAX=195
lavfi.signalstats.SATMIN=0
lavfi.signalstats.SATLOW=0
lavfi.signalstats.SATAVG=8.55481
lavfi.signalstats.SATHIGH=48
lavfi.signalstats.SATMAX=95
lavfi.signalstats.HUEMED=180
lavfi.signalstats.HUEAVG=198.601
lavfi.signalstats.YDIF=0
lavfi.signalstats.UDIF=0
lavfi.signalstats.VDIF=0
lavfi.signalstats.YBITDEPTH=8
lavfi.signalstats.UBITDEPTH=8
lavfi.signalstats.VBITDEPTH=8
frame:1    pts:1       pts_time:0.2
lavfi.signalstats.YMIN=8
lavfi.signalstats.YLOW=129
lavfi.signalstats.YAVG=181.675
lavfi.signalstats.YHIGH=196
lavfi.signalstats.YMAX=244
lavfi.signalstats.UMIN=109
lavfi.signalstats.ULOW=128
lavfi.signalstats.UAVG=130.219
lavfi.signalstats.UHIGH=132
lavfi.signalstats.UMAX=192
lavfi.signalstats.VMIN=38
lavfi.signalstats.VLOW=101
lavfi.signalstats.VAVG=123.021
lavfi.signalstats.VHIGH=128
lavfi.signalstats.VMAX=195
lavfi.signalstats.SATMIN=0
lavfi.signalstats.SATLOW=0
lavfi.signalstats.SATAVG=8.56415
lavfi.signalstats.SATHIGH=48
lavfi.signalstats.SATMAX=95
lavfi.signalstats.HUEMED=180
lavfi.signalstats.HUEAVG=198.837
lavfi.signalstats.YDIF=0.0425845
lavfi.signalstats.UDIF=0.0345915
lavfi.signalstats.VDIF=0.032734
lavfi.signalstats.YBITDEPTH=8
lavfi.signalstats.UBITDEPTH=8
lavfi.signalstats.VBITDEPTH=8
frame:2    pts:2       pts_time:0.4
lavfi.signalstats.YMIN=8
lavfi.signalstats.YLOW=129
lavfi.signalstats.YAVG=181.674
lavfi.signalstats.YHIGH=196
lavfi.signalstats.YMAX=244
lavfi.signalstats.UMIN=109
lavfi.signalstats.ULOW=128
lavfi.signalstats.UAVG=130.214
lavfi.signalstats.UHIGH=132
lavfi.signalstats.UMAX=192
lavfi.signalstats.VMIN=38
lavfi.signalstats.VLOW=101
lavfi.signalstats.VAVG=123.018
lavfi.signalstats.VHIGH=128
lavfi.signalstats.VMAX=195
lavfi.signalstats.SATMIN=0
lavfi.signalstats.SATLOW=0
lavfi.signalstats.SATAVG=8.56646
lavfi.signalstats.SATHIGH=48
lavfi.signalstats.SATMAX=95
lavfi.signalstats.HUEMED=180
lavfi.signalstats.HUEAVG=198.763
lavfi.signalstats.YDIF=0.0029978
lavfi.signalstats.UDIF=0.00884015
lavfi.signalstats.VDIF=0.00550033
lavfi.signalstats.YBITDEPTH=8
lavfi.signalstats.UBITDEPTH=8
lavfi.signalstats.VBITDEPTH=8
frame:3    pts:3       pts_time:0.6
lavfi.signalstats.YMIN=8
lavfi.signalstats.YLOW=129
lavfi.signalstats.YAVG=181.674
lavfi.signalstats.YHIGH=196
lavfi.signalstats.YMAX=244
lavfi.signalstats.UMIN=109
lavfi.signalstats.ULOW=128
lavfi.signalstats.UAVG=130.214
lavfi.signalstats.UHIGH=132
lavfi.signalstats.UMAX=192
lavfi.signalstats.VMIN=38
lavfi.signalstats.VLOW=101
lavfi.signalstats.VAVG=123.018
lavfi.signalstats.VHIGH=128
lavfi.signalstats.VMAX=195
lavfi.signalstats.SATMIN=0
lavfi.signalstats.SATLOW=0
lavfi.signalstats.SATAVG=8.56646
lavfi.signalstats.SATHIGH=48
lavfi.signalstats.SATMAX=95
lavfi.signalstats.HUEMED=180
lavfi.signalstats.HUEAVG=198.763
lavfi.signalstats.YDIF=0
lavfi.signalstats.UDIF=0
lavfi.signalstats.VDIF=0
lavfi.signalstats.YBITDEPTH=8
lavfi.signalstats.UBITDEPTH=8
lavfi.signalstats.VBITDEPTH=8
frame:4    pts:4       pts_time:0.8
lavfi.signalstats.YMIN=8
lavfi.signalstats.YLOW=129
lavfi.signalstats.YAVG=181.674
lavfi.signalstats.YHIGH=196
lavfi.signalstats.YMAX=244
lavfi.signalstats.UMIN=109
lavfi.signalstats.ULOW=128
lavfi.signalstats.UAVG=130.214
lavfi.signalstats.UHIGH=132
lavfi.signalstats.UMAX=192
lavfi.signalstats.VMIN=38
lavfi.signalstats.VLOW=101
lavfi.signalstats.VAVG=123.018
lavfi.signalstats.VHIGH=128
lavfi.signalstats.VMAX=195
lavfi.signalstats.SATMIN=0
lavfi.signalstats.SATLOW=0
lavfi.signalstats.SATAVG=8.56646
lavfi.signalstats.SATHIGH=48
lavfi.signalstats.SATMAX=95
lavfi.signalstats.HUEMED=180
lavfi.signalstats.HUEAVG=198.763
lavfi.signalstats.YDIF=0
lavfi.signalstats.UDIF=0
lavfi.signalstats.VDIF=0
lavfi.signalstats.YBITDEPTH=8
lavfi.signalstats.UBITDEPTH=8
lavfi.signalstats.VBITDEPTH=8
frame:5    pts:5       pts_time:1
lavfi.signalstats.YMIN=8
lavfi.signalstats.YLOW=129
lavfi.signalstats.YAVG=181.667
lavfi.signalstats.YHIGH=196
lavfi.signalstats.YMAX=244
lavfi.signalstats.UMIN=108
lavfi.signalstats.ULOW=128
lavfi.signalstats.UAVG=130.203
lavfi.signalstats.UHIGH=132
lavfi.signalstats.UMAX=192
lavfi.signalstats.VMIN=38
lavfi.signalstats.VLOW=101
lavfi.signalstats.VAVG=123.009
lavfi.signalstats.VHIGH=128
lavfi.signalstats.VMAX=195
lavfi.signalstats.SATMIN=0
lavfi.signalstats.SATLOW=0
lavfi.signalstats.SATAVG=8.56889
lavfi.signalstats.SATHIGH=48
lavfi.signalstats.SATMAX=95
lavfi.signalstats.HUEMED=180
lavfi.signalstats.HUEAVG=198.366
lavfi.signalstats.YDIF=0.0172386
lavfi.signalstats.UDIF=0.033016
lavfi.signalstats.VDIF=0.0256138
lavfi.signalstats.YBITDEPTH=8
lavfi.signalstats.UBITDEPTH=8
lavfi.signalstats.VBITDEPTH=8
frame:6    pts:6       pts_time:1.2
lavfi.signalstats.YMIN=8
lavfi.signalstats.YLOW=130
lavfi.signalstats.YAVG=181.673
lavfi.signalstats.YHIGH=196
lavfi.signalstats.YMAX=244
lavfi.signalstats.UMIN=108
lavfi.signalstats.ULOW=128
lavfi.signalstats.UAVG=130.214
lavfi.signalstats.UHIGH=132
lavfi.signalstats.UMAX=192
lavfi.signalstats.VMIN=38
lavfi.signalstats.VLOW=101
lavfi.signalstats.VAVG=123.013
lavfi.signalstats.VHIGH=128
lavfi.signalstats.VMAX=195
lavfi.signalstats.SATMIN=0
lavfi.signalstats.SATLOW=0
lavfi.signalstats.SATAVG=8.57721
lavfi.signalstats.SATHIGH=48
lavfi.signalstats.SATMAX=95
lavfi.signalstats.HUEMED=180
lavfi.signalstats.HUEAVG=200.524
lavfi.signalstats.YDIF=0.0395686
lavfi.signalstats.UDIF=0.0592661
lavfi.signalstats.VDIF=0.059942
lavfi.signalstats.YBITDEPTH=8
lavfi.signalstats.UBITDEPTH=8
lavfi.signalstats.VBITDEPTH=8
frame:7    pts:7       pts_time:1.4
lavfi.signalstats.YMIN=8
lavfi.signalstats.YLOW=130
lavfi.signalstats.YAVG=181.671
lavfi.signalstats.YHIGH=196
lavfi.signalstats.YMAX=244
lavfi.signalstats.UMIN=108
lavfi.signalstats.ULOW=128
lavfi.signalstats.UAVG=130.208
lavfi.signalstats.UHIGH=132
lavfi.signalstats.UMAX=192
lavfi.signalstats.VMIN=38
lavfi.signalstats.VLOW=101
lavfi.signalstats.VAVG=123.007
lavfi.signalstats.VHIGH=128
lavfi.signalstats.VMAX=195
lavfi.signalstats.SATMIN=0
lavfi.signalstats.SATLOW=0
lavfi.signalstats.SATAVG=8.58099
lavfi.signalstats.SATHIGH=48
lavfi.signalstats.SATMAX=95
lavfi.signalstats.HUEMED=180
lavfi.signalstats.HUEAVG=200.347
lavfi.signalstats.YDIF=0.00785312
lavfi.signalstats.UDIF=0.0174589
lavfi.signalstats.VDIF=0.0175055
lavfi.signalstats.YBITDEPTH=8
lavfi.signalstats.UBITDEPTH=8
lavfi.signalstats.VBITDEPTH=8
frame:8    pts:8       pts_time:1.6
lavfi.signalstats.YMIN=8
lavfi.signalstats.YLOW=130
lavfi.signalstats.YAVG=181.671
lavfi.signalstats.YHIGH=196
lavfi.signalstats.YMAX=244
lavfi.signalstats.UMIN=108
lavfi.signalstats.ULOW=128
lavfi.signalstats.UAVG=130.21
lavfi.signalstats.UHIGH=132
lavfi.signalstats.UMAX=192
lavfi.signalstats.VMIN=38
lavfi.signalstats.VLOW=101
lavfi.signalstats.VAVG=123.009
lavfi.signalstats.VHIGH=128
lavfi.signalstats.VMAX=195
lavfi.signalstats.SATMIN=0
lavfi.signalstats.SATLOW=0
lavfi.signalstats.SATAVG=8.58153
lavfi.signalstats.SATHIGH=48
lavfi.signalstats.SATMAX=95
lavfi.signalstats.HUEMED=180
lavfi.signalstats.HUEAVG=200.405
lavfi.signalstats.YDIF=0.0017375
lavfi.signalstats.UDIF=0.00626479
lavfi.signalstats.VDIF=0.00571941
lavfi.signalstats.YBITDEPTH=8
lavfi.signalstats.UBITDEPTH=8
lavfi.signalstats.VBITDEPTH=8
frame:9    pts:9       pts_time:1.8
lavfi.signalstats.YMIN=8
lavfi.signalstats.YLOW=130
lavfi.signalstats.YAVG=181.671
lavfi.signalstats.YHIGH=196
lavfi.signalstats.YMAX=244
lavfi.signalstats.UMIN=108
lavfi.signalstats.ULOW=128
lavfi.signalstats.UAVG=130.209
lavfi.signalstats.UHIGH=132
lavfi.signalstats.UMAX=192
lavfi.signalstats.VMIN=38
lavfi.signalstats.VLOW=101
lavfi.signalstats.VAVG=123.008
lavfi.signalstats.VHIGH=128
lavfi.signalstats.VMAX=195
lavfi.signalstats.SATMIN=0
lavfi.signalstats.SATLOW=0
lavfi.signalstats.SATAVG=8.58151
lavfi.signalstats.SATHIGH=48
lavfi.signalstats.SATMAX=95
lavfi.signalstats.HUEMED=180
lavfi.signalstats.HUEAVG=200.349
lavfi.signalstats.YDIF=0.000519735
lavfi.signalstats.UDIF=0.00133779
lavfi.signalstats.VDIF=0.00161747
lavfi.signalstats.YBITDEPTH=8
lavfi.signalstats.UBITDEPTH=8
lavfi.signalstats.VBITDEPTH=8
frame:10   pts:10      pts_time:2
lavfi.signalstats.YMIN=8
lavfi.signalstats.YLOW=130
lavfi.signalstats.YAVG=181.672
lavfi.signalstats.YHIGH=196
lavfi.signalstats.YMAX=244
lavfi.signalstats.UMIN=108
lavfi.signalstats.ULOW=128
lavfi.signalstats.UAVG=130.212
lavfi.signalstats.UHIGH=132
lavfi.signalstats.UMAX=192
lavfi.signalstats.VMIN=38
lavfi.signalstats.VLOW=101
lavfi.signalstats.VAVG=123.01
lavfi.signalstats.VHIGH=128
lavfi.signalstats.VMAX=195
lavfi.signalstats.SATMIN=0
lavfi.signalstats.SATLOW=0
lavfi.signalstats.SATAVG=8.58162
lavfi.signalstats.SATHIGH=48
lavfi.signalstats.SATMAX=95
lavfi.signalstats.HUEMED=180
lavfi.signalstats.HUEAVG=200.378
lavfi.signalstats.YDIF=0.00237027
lavfi.signalstats.UDIF=0.00736485
lavfi.signalstats.VDIF=0.00637433
lavfi.signalstats.YBITDEPTH=8
lavfi.signalstats.UBITDEPTH=8
lavfi.signalstats.VBITDEPTH=8
frame:11   pts:11      pts_time:2.2
lavfi.signalstats.YMIN=8
lavfi.signalstats.YLOW=130
lavfi.signalstats.YAVG=181.672
lavfi.signalstats.YHIGH=196
lavfi.signalstats.YMAX=244
lavfi.signalstats.UMIN=108
lavfi.signalstats.ULOW=128
lavfi.signalstats.UAVG=130.21
lavfi.signalstats.UHIGH=132
lavfi.signalstats.UMAX=192
lavfi.signalstats.VMIN=38
lavfi.signalstats.VLOW=101
lavfi.signalstats.VAVG=123.006
lavfi.signalstats.VHIGH=128
lavfi.signalstats.VMAX=195
lavfi.signalstats.SATMIN=0
lavfi.signalstats.SATLOW=0
lavfi.signalstats.SATAVG=8.5815
lavfi.signalstats.SATHIGH=48
lavfi.signalstats.SATMAX=95
lavfi.signalstats.HUEMED=180
lavfi.signalstats.HUEAVG=200.579
lavfi.signalstats.YDIF=0.00507848
lavfi.signalstats.UDIF=0.014718
lavfi.signalstats.VDIF=0.0123035
lavfi.signalstats.YBITDEPTH=8
lavfi.signalstats.UBITDEPTH=8
lavfi.signalstats.VBITDEPTH=8
frame:12   pts:12      pts_time:2.4
lavfi.signalstats.YMIN=8
lavfi.signalstats.YLOW=130
lavfi.signalstats.YAVG=181.672
lavfi.signalstats.YHIGH=196
lavfi.signalstats.YMAX=244
lavfi.signalstats.UMIN=108
lavfi.signalstats.ULOW=128
lavfi.signalstats.UAVG=130.211
lavfi.signalstats.UHIGH=132
lavfi.signalstats.UMAX=192
lavfi.signalstats.VMIN=38
lavfi.signalstats.VLOW=101
lavfi.signalstats.VAVG=123.008
lavfi.signalstats.VHIGH=128
lavfi.signalstats.VMAX=195
lavfi.signalstats.SATMIN=0
lavfi.signalstats.SATLOW=0
lavfi.signalstats.SATAVG=8.58159
lavfi.signalstats.SATHIGH=48
lavfi.signalstats.SATMAX=95
lavfi.signalstats.HUEMED=180
lavfi.signalstats.HUEAVG=200.623
lavfi.signalstats.YDIF=0.00159242
lavfi.signalstats.UDIF=0.00624148
lavfi.signalstats.VDIF=0.00571009
lavfi.signalstats.YBITDEPTH=8
lavfi.signalstats.UBITDEPTH=8
lavfi.signalstats.VBITDEPTH=8
frame:13   pts:13      pts_time:2.6
lavfi.signalstats.YMIN=7
lavfi.signalstats.YLOW=128
lavfi.signalstats.YAVG=181.801
lavfi.signalstats.YHIGH=196
lavfi.signalstats.YMAX=253
lavfi.signalstats.UMIN=110
lavfi.signalstats.ULOW=128
lavfi.signalstats.UAVG=130.261
lavfi.signalstats.UHIGH=132
lavfi.signalstats.UMAX=192
lavfi.signalstats.VMIN=39
lavfi.signalstats.VLOW=96
lavfi.signalstats.VAVG=123.383
lavfi.signalstats.VHIGH=128
lavfi.signalstats.VMAX=201
lavfi.signalstats.SATMIN=0
lavfi.signalstats.SATLOW=0
lavfi.signalstats.SATAVG=8.46204
lavfi.signalstats.SATHIGH=51
lavfi.signalstats.SATMAX=95
lavfi.signalstats.HUEMED=180
lavfi.signalstats.HUEAVG=199.612
lavfi.signalstats.YDIF=2.32281
lavfi.signalstats.UDIF=0.312603
lavfi.signalstats.VDIF=0.932812
lavfi.signalstats.YBITDEPTH=8
lavfi.signalstats.UBITDEPTH=8
lavfi.signalstats.VBITDEPTH=8
frame:14   pts:14      pts_time:2.8
lavfi.signalstats.YMIN=7
lavfi.signalstats.YLOW=128
lavfi.signalstats.YAVG=181.802
lavfi.signalstats.YHIGH=196
lavfi.signalstats.YMAX=253
lavfi.signalstats.UMIN=110
lavfi.signalstats.ULOW=128
lavfi.signalstats.UAVG=130.261
lavfi.signalstats.UHIGH=132
lavfi.signalstats.UMAX=192
lavfi.signalstats.VMIN=39
lavfi.signalstats.VLOW=96
lavfi.signalstats.VAVG=123.391
lavfi.signalstats.VHIGH=128
lavfi.signalstats.VMAX=201
lavfi.signalstats.SATMIN=0
lavfi.signalstats.SATLOW=0
lavfi.signalstats.SATAVG=8.46491
lavfi.signalstats.SATHIGH=52
lavfi.signalstats.SATMAX=95
lavfi.signalstats.HUEMED=180
lavfi.signalstats.HUEAVG=199.682
lavfi.signalstats.YDIF=0.00414564
lavfi.signalstats.UDIF=0.012476
lavfi.signalstats.VDIF=0.0125272
lavfi.signalstats.YBITDEPTH=8
lavfi.signalstats.UBITDEPTH=8
lavfi.signalstats.VBITDEPTH=8
frame:15   pts:15      pts_time:3
lavfi.signalstats.YMIN=7
lavfi.signalstats.YLOW=128
lavfi.signalstats.YAVG=181.802
lavfi.signalstats.YHIGH=196
lavfi.signalstats.YMAX=253
lavfi.signalstats.UMIN=110
lavfi.signalstats.ULOW=128
lavfi.signalstats.UAVG=130.261
lavfi.signalstats.UHIGH=132
lavfi.signalstats.UMAX=192
lavfi.signalstats.VMIN=39
lavfi.signalstats.VLOW=96
lavfi.signalstats.VAVG=123.39
lavfi.signalstats.VHIGH=128
lavfi.signalstats.VMAX=201
lavfi.signalstats.SATMIN=0
lavfi.signalstats.SATLOW=0
lavfi.signalstats.SATAVG=8.46537
lavfi.signalstats.SATHIGH=52
lavfi.signalstats.SATMAX=95
lavfi.signalstats.HUEMED=180
lavfi.signalstats.HUEAVG=199.687
lavfi.signalstats.YDIF=0.000535467
lavfi.signalstats.UDIF=0.00127953
lavfi.signalstats.VDIF=0.00142869
lavfi.signalstats.YBITDEPTH=8
lavfi.signalstats.UBITDEPTH=8
lavfi.signalstats.VBITDEPTH=8
frame:16   pts:16      pts_time:3.2
lavfi.signalstats.YMIN=7
lavfi.signalstats.YLOW=128
lavfi.signalstats.YAVG=181.803
lavfi.signalstats.YHIGH=196
lavfi.signalstats.YMAX=253
lavfi.signalstats.UMIN=110
lavfi.signalstats.ULOW=128
lavfi.signalstats.UAVG=130.264
lavfi.signalstats.UHIGH=132
lavfi.signalstats.UMAX=192
lavfi.signalstats.VMIN=39
lavfi.signalstats.VLOW=96
lavfi.signalstats.VAVG=123.395
lavfi.signalstats.VHIGH=128
lavfi.signalstats.VMAX=201
lavfi.signalstats.SATMIN=0
lavfi.signalstats.SATLOW=0
lavfi.signalstats.SATAVG=8.46344
lavfi.signalstats.SATHIGH=52
lavfi.signalstats.SATMAX=95
lavfi.signalstats.HUEMED=180
lavfi.signalstats.HUEAVG=199.672
lavfi.signalstats.YDIF=0.00407864
lavfi.signalstats.UDIF=0.0135481
lavfi.signalstats.VDIF=0.0124573
lavfi.signalstats.YBITDEPTH=8
lavfi.signalstats.UBITDEPTH=8
lavfi.signalstats.VBITDEPTH=8
frame:17   pts:17      pts_time:3.4
lavfi.signalstats.YMIN=7
lavfi.signalstats.YLOW=128
lavfi.signalstats.YAVG=181.803
lavfi.signalstats.YHIGH=196
lavfi.signalstats.YMAX=253
lavfi.signalstats.UMIN=110
lavfi.signalstats.ULOW=128
lavfi.signalstats.UAVG=130.262
lavfi.signalstats.UHIGH=132
lavfi.signalstats.UMAX=192
lavfi.signalstats.VMIN=39
lavfi.signalstats.VLOW=96
lavfi.signalstats.VAVG=123.394
lavfi.signalstats.VHIGH=128
lavfi.signalstats.VMAX=201
lavfi.signalstats.SATMIN=0
lavfi.signalstats.SATLOW=0
lavfi.signalstats.SATAVG=8.4632
lavfi.signalstats.SATHIGH=52
lavfi.signalstats.SATMAX=95
lavfi.signalstats.HUEMED=180
lavfi.signalstats.HUEAVG=199.666
lavfi.signalstats.YDIF=0.00112221
lavfi.signalstats.UDIF=0.00422081
lavfi.signalstats.VDIF=0.00325359
lavfi.signalstats.YBITDEPTH=8
lavfi.signalstats.UBITDEPTH=8
lavfi.signalstats.VBITDEPTH=8
frame:18   pts:18      pts_time:3.6
lavfi.signalstats.YMIN=7
lavfi.signalstats.YLOW=128
lavfi.signalstats.YAVG=181.803
lavfi.signalstats.YHIGH=196
lavfi.signalstats.YMAX=253
lavfi.signalstats.UMIN=110
lavfi.signalstats.ULOW=128
lavfi.signalstats.UAVG=130.261
lavfi.signalstats.UHIGH=132
lavfi.signalstats.UMAX=192
lavfi.signalstats.VMIN=39
lavfi.signalstats.VLOW=96
lavfi.signalstats.VAVG=123.393
lavfi.signalstats.VHIGH=128
lavfi.signalstats.VMAX=201
lavfi.signalstats.SATMIN=0
lavfi.signalstats.SATLOW=0
lavfi.signalstats.SATAVG=8.46385
lavfi.signalstats.SATHIGH=52
lavfi.signalstats.SATMAX=95
lavfi.signalstats.HUEMED=180
lavfi.signalstats.HUEAVG=199.584
lavfi.signalstats.YDIF=0.000549451
lavfi.signalstats.UDIF=0.00206029
lavfi.signalstats.VDIF=0.00151958
lavfi.signalstats.YBITDEPTH=8
lavfi.signalstats.UBITDEPTH=8
lavfi.signalstats.VBITDEPTH=8
frame:19   pts:19      pts_time:3.8
lavfi.signalstats.YMIN=7
lavfi.signalstats.YLOW=128
lavfi.signalstats.YAVG=181.802
lavfi.signalstats.YHIGH=196
lavfi.signalstats.YMAX=253
lavfi.signalstats.UMIN=110
lavfi.signalstats.ULOW=128
lavfi.signalstats.UAVG=130.261
lavfi.signalstats.UHIGH=132
lavfi.signalstats.UMAX=192
lavfi.signalstats.VMIN=39
lavfi.signalstats.VLOW=96
lavfi.signalstats.VAVG=123.392
lavfi.signalstats.VHIGH=128
lavfi.signalstats.VMAX=201
lavfi.signalstats.SATMIN=0
lavfi.signalstats.SATLOW=0
lavfi.signalstats.SATAVG=8.46437
lavfi.signalstats.SATHIGH=52
lavfi.signalstats.SATMAX=95
lavfi.signalstats.HUEMED=180
lavfi.signalstats.HUEAVG=199.568
lavfi.signalstats.YDIF=0.000320464
lavfi.signalstats.UDIF=0.000361251
lavfi.signalstats.VDIF=0.000731824
lavfi.signalstats.YBITDEPTH=8
lavfi.signalstats.UBITDEPTH=8
lavfi.signalstats.VBITDEPTH=8
frame:20   pts:20      pts_time:4
lavfi.signalstats.YMIN=7
lavfi.signalstats.YLOW=128
lavfi.signalstats.YAVG=181.803
lavfi.signalstats.YHIGH=196
lavfi.signalstats.YMAX=253
lavfi.signalstats.UMIN=110
lavfi.signalstats.ULOW=128
lavfi.signalstats.UAVG=130.261
lavfi.signalstats.UHIGH=132
lavfi.signalstats.UMAX=192
lavfi.signalstats.VMIN=39
lavfi.signalstats.VLOW=96
lavfi.signalstats.VAVG=123.393
lavfi.signalstats.VHIGH=128
lavfi.signalstats.VMAX=201
lavfi.signalstats.SATMIN=0
lavfi.signalstats.SATLOW=0
lavfi.signalstats.SATAVG=8.46403
lavfi.signalstats.SATHIGH=52
lavfi.signalstats.SATMAX=95
lavfi.signalstats.HUEMED=180
lavfi.signalstats.HUEAVG=199.589
lavfi.signalstats.YDIF=0.00376749
lavfi.signalstats.UDIF=0.00101383
lavfi.signalstats.VDIF=0.00236095
lavfi.signalstats.YBITDEPTH=8
lavfi.signalstats.UBITDEPTH=8
lavfi.signalstats.VBITDEPTH=8
frame:21   pts:21      pts_time:4.2
lavfi.signalstats.YMIN=7
lavfi.signalstats.YLOW=128
lavfi.signalstats.YAVG=181.801
lavfi.signalstats.YHIGH=196
lavfi.signalstats.YMAX=253
lavfi.signalstats.UMIN=110
lavfi.signalstats.ULOW=128
lavfi.signalstats.UAVG=130.256
lavfi.signalstats.UHIGH=132
lavfi.signalstats.UMAX=192
lavfi.signalstats.VMIN=39
lavfi.signalstats.VLOW=96
lavfi.signalstats.VAVG=123.388
lavfi.signalstats.VHIGH=128
lavfi.signalstats.VMAX=201
lavfi.signalstats.SATMIN=0
lavfi.signalstats.SATLOW=0
lavfi.signalstats.SATAVG=8.46693
lavfi.signalstats.SATHIGH=52
lavfi.signalstats.SATMAX=95
lavfi.signalstats.HUEMED=180
lavfi.signalstats.HUEAVG=199.835
lavfi.signalstats.YDIF=0.0118001
lavfi.signalstats.UDIF=0.0212439
lavfi.signalstats.VDIF=0.0225584
lavfi.signalstats.YBITDEPTH=8
lavfi.signalstats.UBITDEPTH=8
lavfi.signalstats.VBITDEPTH=8
frame:22   pts:22      pts_time:4.4
lavfi.signalstats.YMIN=7
lavfi.signalstats.YLOW=128
lavfi.signalstats.YAVG=181.802
lavfi.signalstats.YHIGH=196
lavfi.signalstats.YMAX=253
lavfi.signalstats.UMIN=110
lavfi.signalstats.ULOW=128
lavfi.signalstats.UAVG=130.256
lavfi.signalstats.UHIGH=132
lavfi.signalstats.UMAX=192
lavfi.signalstats.VMIN=39
lavfi.signalstats.VLOW=96
lavfi.signalstats.VAVG=123.39
lavfi.signalstats.VHIGH=128
lavfi.signalstats.VMAX=201
lavfi.signalstats.SATMIN=0
lavfi.signalstats.SATLOW=0
lavfi.signalstats.SATAVG=8.46664
lavfi.signalstats.SATHIGH=52
lavfi.signalstats.SATMAX=95
lavfi.signalstats.HUEMED=180
lavfi.signalstats.HUEAVG=199.885
lavfi.signalstats.YDIF=0.00350064
lavfi.signalstats.UDIF=0.00678918
lavfi.signalstats.VDIF=0.00926433
lavfi.signalstats.YBITDEPTH=8
lavfi.signalstats.UBITDEPTH=8
lavfi.signalstats.VBITDEPTH=8
frame:23   pts:23      pts_time:4.6
lavfi.signalstats.YMIN=8
lavfi.signalstats.YLOW=129
lavfi.signalstats.YAVG=181.472
lavfi.signalstats.YHIGH=196
lavfi.signalstats.YMAX=255
lavfi.signalstats.UMIN=110
lavfi.signalstats.ULOW=128
lavfi.signalstats.UAVG=130.2
lavfi.signalstats.UHIGH=132
lavfi.signalstats.UMAX=192
lavfi.signalstats.VMIN=39
lavfi.signalstats.VLOW=95
lavfi.signalstats.VAVG=122.898
lavfi.signalstats.VHIGH=128
lavfi.signalstats.VMAX=196
lavfi.signalstats.SATMIN=0
lavfi.signalstats.SATLOW=0
lavfi.signalstats.SATAVG=8.66921
lavfi.signalstats.SATHIGH=48
lavfi.signalstats.SATMAX=95
lavfi.signalstats.HUEMED=180
lavfi.signalstats.HUEAVG=200.084
lavfi.signalstats.YDIF=2.44645
lavfi.signalstats.UDIF=0.294007
lavfi.signalstats.VDIF=0.846951
lavfi.signalstats.YBITDEPTH=8
lavfi.signalstats.UBITDEPTH=8
lavfi.signalstats.VBITDEPTH=8
frame:24   pts:24      pts_time:4.8
lavfi.signalstats.YMIN=8
lavfi.signalstats.YLOW=129
lavfi.signalstats.YAVG=181.472
lavfi.signalstats.YHIGH=196
lavfi.signalstats.YMAX=255
lavfi.signalstats.UMIN=110
lavfi.signalstats.ULOW=128
lavfi.signalstats.UAVG=130.2
lavfi.signalstats.UHIGH=132
lavfi.signalstats.UMAX=192
lavfi.signalstats.VMIN=39
lavfi.signalstats.VLOW=95
lavfi.signalstats.VAVG=122.898
lavfi.signalstats.VHIGH=128
lavfi.signalstats.VMAX=196
lavfi.signalstats.SATMIN=0
lavfi.signalstats.SATLOW=0
lavfi.signalstats.SATAVG=8.67002
lavfi.signalstats.SATHIGH=48
lavfi.signalstats.SATMAX=95
lavfi.signalstats.HUEMED=180
lavfi.signalstats.HUEAVG=200.19
lavfi.signalstats.YDIF=0.000707352
lavfi.signalstats.UDIF=0.00475452
lavfi.signalstats.VDIF=0.00427208
lavfi.signalstats.YBITDEPTH=8
lavfi.signalstats.UBITDEPTH=8
lavfi.signalstats.VBITDEPTH=8
frame:25   pts:25      pts_time:5
lavfi.signalstats.YMIN=8
lavfi.signalstats.YLOW=129
lavfi.signalstats.YAVG=181.472
lavfi.signalstats.YHIGH=196
lavfi.signalstats.YMAX=255
lavfi.signalstats.UMIN=110
lavfi.signalstats.ULOW=128
lavfi.signalstats.UAVG=130.195
lavfi.signalstats.UHIGH=132
lavfi.signalstats.UMAX=192
lavfi.signalstats.VMIN=39
lavfi.signalstats.VLOW=95
lavfi.signalstats.VAVG=122.895
lavfi.signalstats.VHIGH=128
lavfi.signalstats.VMAX=196
lavfi.signalstats.SATMIN=0
lavfi.signalstats.SATLOW=0
lavfi.signalstats.SATAVG=8.67103
lavfi.signalstats.SATHIGH=48
lavfi.signalstats.SATMAX=95
lavfi.signalstats.HUEMED=180
lavfi.signalstats.HUEAVG=200.099
lavfi.signalstats.YDIF=0.00226423
lavfi.signalstats.UDIF=0.0106068
lavfi.signalstats.VDIF=0.00828313
lavfi.signalstats.YBITDEPTH=8
lavfi.signalstats.UBITDEPTH=8
lavfi.signalstats.VBITDEPTH=8
frame:26   pts:26      pts_time:5.2
lavfi.signalstats.YMIN=8
lavfi.signalstats.YLOW=129
lavfi.signalstats.YAVG=181.474
lavfi.signalstats.YHIGH=196
lavfi.signalstats.YMAX=255
lavfi.signalstats.UMIN=110
lavfi.signalstats.ULOW=128
lavfi.signalstats.UAVG=130.199
lavfi.signalstats.UHIGH=132
lavfi.signalstats.UMAX=192
lavfi.signalstats.VMIN=39
lavfi.signalstats.VLOW=95
lavfi.signalstats.VAVG=122.9
lavfi.signalstats.VHIGH=128
lavfi.signalstats.VMAX=196
lavfi.signalstats.SATMIN=0
lavfi.signalstats.SATLOW=0
lavfi.signalstats.SATAVG=8.66906
lavfi.signalstats.SATHIGH=48
lavfi.signalstats.SATMAX=95
lavfi.signalstats.HUEMED=180
lavfi.signalstats.HUEAVG=200.273
lavfi.signalstats.YDIF=0.00199212
lavfi.signalstats.UDIF=0.00773309
lavfi.signalstats.VDIF=0.00914081
lavfi.signalstats.YBITDEPTH=8
lavfi.signalstats.UBITDEPTH=8
lavfi.signalstats.VBITDEPTH=8
frame:27   pts:27      pts_time:5.4
lavfi.signalstats.YMIN=8
lavfi.signalstats.YLOW=129
lavfi.signalstats.YAVG=181.474
lavfi.signalstats.YHIGH=196
lavfi.signalstats.YMAX=255
lavfi.signalstats.UMIN=110
lavfi.signalstats.ULOW=128
lavfi.signalstats.UAVG=130.2
lavfi.signalstats.UHIGH=132
lavfi.signalstats.UMAX=192
lavfi.signalstats.VMIN=39
lavfi.signalstats.VLOW=95
lavfi.signalstats.VAVG=122.9
lavfi.signalstats.VHIGH=128
lavfi.signalstats.VMAX=196
lavfi.signalstats.SATMIN=0
lavfi.signalstats.SATLOW=0
lavfi.signalstats.SATAVG=8.67043
lavfi.signalstats.SATHIGH=48
lavfi.signalstats.SATMAX=95
lavfi.signalstats.HUEMED=180
lavfi.signalstats.HUEAVG=200.258
lavfi.signalstats.YDIF=0.00137567
lavfi.signalstats.UDIF=0.00476851
lavfi.signalstats.VDIF=0.00349131
lavfi.signalstats.YBITDEPTH=8
lavfi.signalstats.UBITDEPTH=8
lavfi.signalstats.VBITDEPTH=8
frame:28   pts:28      pts_time:5.6
lavfi.signalstats.YMIN=8
lavfi.signalstats.YLOW=129
lavfi.signalstats.YAVG=181.474
lavfi.signalstats.YHIGH=196
lavfi.signalstats.YMAX=255
lavfi.signalstats.UMIN=110
lavfi.signalstats.ULOW=128
lavfi.signalstats.UAVG=130.199
lavfi.signalstats.UHIGH=132
lavfi.signalstats.UMAX=192
lavfi.signalstats.VMIN=39
lavfi.signalstats.VLOW=95
lavfi.signalstats.VAVG=122.9
lavfi.signalstats.VHIGH=128
lavfi.signalstats.VMAX=196
lavfi.signalstats.SATMIN=0
lavfi.signalstats.SATLOW=0
lavfi.signalstats.SATAVG=8.67125
lavfi.signalstats.SATHIGH=48
lavfi.signalstats.SATMAX=95
lavfi.signalstats.HUEMED=180
lavfi.signalstats.HUEAVG=200.27
lavfi.signalstats.YDIF=0.00137217
lavfi.signalstats.UDIF=0.00251244
lavfi.signalstats.VDIF=0.00237959
lavfi.signalstats.YBITDEPTH=8
lavfi.signalstats.UBITDEPTH=8
lavfi.signalstats.VBITDEPTH=8
frame:29   pts:29      pts_time:5.8
lavfi.signalstats.YMIN=8
lavfi.signalstats.YLOW=129
lavfi.signalstats.YAVG=181.474
lavfi.signalstats.YHIGH=196
lavfi.signalstats.YMAX=255
lavfi.signalstats.UMIN=110
lavfi.signalstats.ULOW=128
lavfi.signalstats.UAVG=130.198
lavfi.signalstats.UHIGH=132
lavfi.signalstats.UMAX=192
lavfi.signalstats.VMIN=39
lavfi.signalstats.VLOW=95
lavfi.signalstats.VAVG=122.9
lavfi.signalstats.VHIGH=128
lavfi.signalstats.VMAX=196
lavfi.signalstats.SATMIN=0
lavfi.signalstats.SATLOW=0
lavfi.signalstats.SATAVG=8.67161
lavfi.signalstats.SATHIGH=48
lavfi.signalstats.SATMAX=95
lavfi.signalstats.HUEMED=180
lavfi.signalstats.HUEAVG=200.262
lavfi.signalstats.YDIF=0.000858262
lavfi.signalstats.UDIF=0.000834372
lavfi.signalstats.VDIF=0.000638598
lavfi.signalstats.YBITDEPTH=8
lavfi.signalstats.UBITDEPTH=8
lavfi.signalstats.VBITDEPTH=8
frame:30   pts:30      pts_time:6
lavfi.signalstats.YMIN=8
lavfi.signalstats.YLOW=129
lavfi.signalstats.YAVG=181.474
lavfi.signalstats.YHIGH=196
lavfi.signalstats.YMAX=255
lavfi.signalstats.UMIN=110
lavfi.signalstats.ULOW=128
lavfi.signalstats.UAVG=130.199
lavfi.signalstats.UHIGH=132
lavfi.signalstats.UMAX=192
lavfi.signalstats.VMIN=39
lavfi.signalstats.VLOW=95
lavfi.signalstats.VAVG=122.901
lavfi.signalstats.VHIGH=128
lavfi.signalstats.VMAX=196
lavfi.signalstats.SATMIN=0
lavfi.signalstats.SATLOW=0
lavfi.signalstats.SATAVG=8.67232
lavfi.signalstats.SATHIGH=48
lavfi.signalstats.SATMAX=95
lavfi.signalstats.HUEMED=180
lavfi.signalstats.HUEAVG=200.311
lavfi.signalstats.YDIF=0.00261732
lavfi.signalstats.UDIF=0.00361717
lavfi.signalstats.VDIF=0.00494331
lavfi.signalstats.YBITDEPTH=8
lavfi.signalstats.UBITDEPTH=8
lavfi.signalstats.VBITDEPTH=8
frame:31   pts:31      pts_time:6.2
lavfi.signalstats.YMIN=5
lavfi.signalstats.YLOW=126
lavfi.signalstats.YAVG=187.416
lavfi.signalstats.YHIGH=235
lavfi.signalstats.YMAX=254
lavfi.signalstats.UMIN=110
lavfi.signalstats.ULOW=128
lavfi.signalstats.UAVG=130.273
lavfi.signalstats.UHIGH=132
lavfi.signalstats.UMAX=192
lavfi.signalstats.VMIN=39
lavfi.signalstats.VLOW=95
lavfi.signalstats.VAVG=123.207
lavfi.signalstats.VHIGH=128
lavfi.signalstats.VMAX=200
lavfi.signalstats.SATMIN=0
lavfi.signalstats.SATLOW=0
lavfi.signalstats.SATAVG=8.4316
lavfi.signalstats.SATHIGH=48
lavfi.signalstats.SATMAX=95
lavfi.signalstats.HUEMED=180
lavfi.signalstats.HUEAVG=200.198
lavfi.signalstats.YDIF=8.58203
lavfi.signalstats.UDIF=0.303611
lavfi.signalstats.VDIF=0.571039
lavfi.signalstats.YBITDEPTH=8
lavfi.signalstats.UBITDEPTH=8
lavfi.signalstats.VBITDEPTH=8
frame:32   pts:32      pts_time:6.4
lavfi.signalstats.YMIN=5
lavfi.signalstats.YLOW=126
lavfi.signalstats.YAVG=187.418
lavfi.signalstats.YHIGH=235
lavfi.signalstats.YMAX=254
lavfi.signalstats.UMIN=110
lavfi.signalstats.ULOW=128
lavfi.signalstats.UAVG=130.275
lavfi.signalstats.UHIGH=132
lavfi.signalstats.UMAX=192
lavfi.signalstats.VMIN=39
lavfi.signalstats.VLOW=95
lavfi.signalstats.VAVG=123.207
lavfi.signalstats.VHIGH=128
lavfi.signalstats.VMAX=200
lavfi.signalstats.SATMIN=0
lavfi.signalstats.SATLOW=0
lavfi.signalstats.SATAVG=8.43263
lavfi.signalstats.SATHIGH=48
lavfi.signalstats.SATMAX=95
lavfi.signalstats.HUEMED=180
lavfi.signalstats.HUEAVG=200.189
lavfi.signalstats.YDIF=0.00360202
lavfi.signalstats.UDIF=0.00378031
lavfi.signalstats.VDIF=0.00531155
lavfi.signalstats.YBITDEPTH=8
lavfi.signalstats.UBITDEPTH=8
lavfi.signalstats.VBITDEPTH=8
frame:33   pts:33      pts_time:6.6
lavfi.signalstats.YMIN=5
lavfi.signalstats.YLOW=126
lavfi.signalstats.YAVG=187.418
lavfi.signalstats.YHIGH=235
lavfi.signalstats.YMAX=254
lavfi.signalstats.UMIN=110
lavfi.signalstats.ULOW=128
lavfi.signalstats.UAVG=130.274
lavfi.signalstats.UHIGH=132
lavfi.signalstats.UMAX=192
lavfi.signalstats.VMIN=39
lavfi.signalstats.VLOW=95
lavfi.signalstats.VAVG=123.206
lavfi.signalstats.VHIGH=128
lavfi.signalstats.VMAX=200
lavfi.signalstats.SATMIN=0
lavfi.signalstats.SATLOW=0
lavfi.signalstats.SATAVG=8.43338
lavfi.signalstats.SATHIGH=48
lavfi.signalstats.SATMAX=95
lavfi.signalstats.HUEMED=180
lavfi.signalstats.HUEAVG=200.17
lavfi.signalstats.YDIF=0.00180742
lavfi.signalstats.UDIF=0.000925268
lavfi.signalstats.VDIF=0.00195541
lavfi.signalstats.YBITDEPTH=8
lavfi.signalstats.UBITDEPTH=8
lavfi.signalstats.VBITDEPTH=8
frame:34   pts:34      pts_time:6.8
lavfi.signalstats.YMIN=5
lavfi.signalstats.YLOW=126
lavfi.signalstats.YAVG=187.418
lavfi.signalstats.YHIGH=235
lavfi.signalstats.YMAX=254
lavfi.signalstats.UMIN=110
lavfi.signalstats.ULOW=128
lavfi.signalstats.UAVG=130.274
lavfi.signalstats.UHIGH=132
lavfi.signalstats.UMAX=192
lavfi.signalstats.VMIN=39
lavfi.signalstats.VLOW=95
lavfi.signalstats.VAVG=123.206
lavfi.signalstats.VHIGH=128
lavfi.signalstats.VMAX=200
lavfi.signalstats.SATMIN=0
lavfi.signalstats.SATLOW=0
lavfi.signalstats.SATAVG=8.43315
lavfi.signalstats.SATHIGH=48
lavfi.signalstats.SATMAX=95
lavfi.signalstats.HUEMED=180
lavfi.signalstats.HUEAVG=200.169
lavfi.signalstats.YDIF=0.000527892
lavfi.signalstats.UDIF=0.00128652
lavfi.signalstats.VDIF=0.0021675
lavfi.signalstats.YBITDEPTH=8
lavfi.signalstats.UBITDEPTH=8
lavfi.signalstats.VBITDEPTH=8
frame:35   pts:35      pts_time:7
lavfi.signalstats.YMIN=5
lavfi.signalstats.YLOW=126
lavfi.signalstats.YAVG=187.418
lavfi.signalstats.YHIGH=235
lavfi.signalstats.YMAX=254
lavfi.signalstats.UMIN=110
lavfi.signalstats.ULOW=128
lavfi.signalstats.UAVG=130.273
lavfi.signalstats.UHIGH=132
lavfi.signalstats.UMAX=192
lavfi.signalstats.VMIN=39
lavfi.signalstats.VLOW=95
lavfi.signalstats.VAVG=123.205
lavfi.signalstats.VHIGH=128
lavfi.signalstats.VMAX=200
lavfi.signalstats.SATMIN=0
lavfi.signalstats.SATLOW=0
lavfi.signalstats.SATAVG=8.43317
lavfi.signalstats.SATHIGH=48
lavfi.signalstats.SATMAX=95
lavfi.signalstats.HUEMED=180
lavfi.signalstats.HUEAVG=200.137
lavfi.signalstats.YDIF=0.000808735
lavfi.signalstats.UDIF=0.0012772
lavfi.signalstats.VDIF=0.000995187
lavfi.signalstats.YBITDEPTH=8
lavfi.signalstats.UBITDEPTH=8
lavfi.signalstats.VBITDEPTH=8
frame:36   pts:36      pts_time:7.2
lavfi.signalstats.YMIN=5
lavfi.signalstats.YLOW=126
lavfi.signalstats.YAVG=187.418
lavfi.signalstats.YHIGH=235
lavfi.signalstats.YMAX=254
lavfi.signalstats.UMIN=110
lavfi.signalstats.ULOW=128
lavfi.signalstats.UAVG=130.273
lavfi.signalstats.UHIGH=132
lavfi.signalstats.UMAX=192
lavfi.signalstats.VMIN=39
lavfi.signalstats.VLOW=95
lavfi.signalstats.VAVG=123.207
lavfi.signalstats.VHIGH=128
lavfi.signalstats.VMAX=200
lavfi.signalstats.SATMIN=0
lavfi.signalstats.SATLOW=0
lavfi.signalstats.SATAVG=8.43261
lavfi.signalstats.SATHIGH=49
lavfi.signalstats.SATMAX=95
lavfi.signalstats.HUEMED=180
lavfi.signalstats.HUEAVG=200.155
lavfi.signalstats.YDIF=0.00148695
lavfi.signalstats.UDIF=0.00477783
lavfi.signalstats.VDIF=0.00463799
lavfi.signalstats.YBITDEPTH=8
lavfi.signalstats.UBITDEPTH=8
lavfi.signalstats.VBITDEPTH=8
frame:37   pts:37      pts_time:7.4
lavfi.signalstats.YMIN=13
lavfi.signalstats.YLOW=180
lavfi.signalstats.YAVG=201.124
lavfi.signalstats.YHIGH=235
lavfi.signalstats.YMAX=255
lavfi.signalstats.UMIN=110
lavfi.signalstats.ULOW=128
lavfi.signalstats.UAVG=129.025
lavfi.signalstats.UHIGH=129
lavfi.signalstats.UMAX=189
lavfi.signalstats.VMIN=43
lavfi.signalstats.VLOW=126
lavfi.signalstats.VAVG=126.088
lavfi.signalstats.VHIGH=128
lavfi.signalstats.VMAX=192
lavfi.signalstats.SATMIN=0
lavfi.signalstats.SATLOW=0
lavfi.signalstats.SATAVG=3.27317
lavfi.signalstats.SATHIGH=6
lavfi.signalstats.SATMAX=90
lavfi.signalstats.HUEMED=180
lavfi.signalstats.HUEAVG=190.268
lavfi.signalstats.YDIF=35.2414
lavfi.signalstats.UDIF=3.4518
lavfi.signalstats.VDIF=9.79947
lavfi.signalstats.YBITDEPTH=8
lavfi.signalstats.UBITDEPTH=8
lavfi.signalstats.VBITDEPTH=8
frame:38   pts:38      pts_time:7.6
lavfi.signalstats.YMIN=13
lavfi.signalstats.YLOW=180
lavfi.signalstats.YAVG=201.12
lavfi.signalstats.YHIGH=235
lavfi.signalstats.YMAX=255
lavfi.signalstats.UMIN=110
lavfi.signalstats.ULOW=128
lavfi.signalstats.UAVG=129.022
lavfi.signalstats.UHIGH=129
lavfi.signalstats.UMAX=189
lavfi.signalstats.VMIN=43
lavfi.signalstats.VLOW=126
lavfi.signalstats.VAVG=126.067
lavfi.signalstats.VHIGH=128
lavfi.signalstats.VMAX=192
lavfi.signalstats.SATMIN=0
lavfi.signalstats.SATLOW=0
lavfi.signalstats.SATAVG=3.28783
lavfi.signalstats.SATHIGH=6
lavfi.signalstats.SATMAX=90
lavfi.signalstats.HUEMED=180
lavfi.signalstats.HUEAVG=189.191
lavfi.signalstats.YDIF=0.0245819
lavfi.signalstats.UDIF=0.0275995
lavfi.signalstats.VDIF=0.0367986
lavfi.signalstats.YBITDEPTH=8
lavfi.signalstats.UBITDEPTH=8
lavfi.signalstats.VBITDEPTH=8
frame:39   pts:39      pts_time:7.8
lavfi.signalstats.YMIN=13
lavfi.signalstats.YLOW=180
lavfi.signalstats.YAVG=201.12
lavfi.signalstats.YHIGH=235
lavfi.signalstats.YMAX=255
lavfi.signalstats.UMIN=110
lavfi.signalstats.ULOW=128
lavfi.signalstats.UAVG=129.022
lavfi.signalstats.UHIGH=129
lavfi.signalstats.UMAX=189
lavfi.signalstats.VMIN=43
lavfi.signalstats.VLOW=126
lavfi.signalstats.VAVG=126.068
lavfi.signalstats.VHIGH=128
lavfi.signalstats.VMAX=192
lavfi.signalstats.SATMIN=0
lavfi.signalstats.SATLOW=0
lavfi.signalstats.SATAVG=3.2878
lavfi.signalstats.SATHIGH=6
lavfi.signalstats.SATMAX=90
lavfi.signalstats.HUEMED=180
lavfi.signalstats.HUEAVG=189.184
lavfi.signalstats.YDIF=0.0036428
lavfi.signalstats.UDIF=0.000878655
lavfi.signalstats.VDIF=0.00369641
lavfi.signalstats.YBITDEPTH=8
lavfi.signalstats.UBITDEPTH=8
lavfi.signalstats.VBITDEPTH=8
frame:40   pts:40      pts_time:8
lavfi.signalstats.YMIN=14
lavfi.signalstats.YLOW=215
lavfi.signalstats.YAVG=224.872
lavfi.signalstats.YHIGH=235
lavfi.signalstats.YMAX=253
lavfi.signalstats.UMIN=110
lavfi.signalstats.ULOW=128
lavfi.signalstats.UAVG=128.844
lavfi.signalstats.UHIGH=129
lavfi.signalstats.UMAX=211
lavfi.signalstats.VMIN=25
lavfi.signalstats.VLOW=126
lavfi.signalstats.VAVG=126.083
lavfi.signalstats.VHIGH=128
lavfi.signalstats.VMAX=206
lavfi.signalstats.SATMIN=0
lavfi.signalstats.SATLOW=0
lavfi.signalstats.SATAVG=3.39069
lavfi.signalstats.SATHIGH=6
lavfi.signalstats.SATMAX=108
lavfi.signalstats.HUEMED=180
lavfi.signalstats.HUEAVG=185.749
lavfi.signalstats.YDIF=27.1094
lavfi.signalstats.UDIF=0.555743
lavfi.signalstats.VDIF=0.88209
lavfi.signalstats.YBITDEPTH=8
lavfi.signalstats.UBITDEPTH=8
lavfi.signalstats.VBITDEPTH=8
frame:41   pts:41      pts_time:8.2
lavfi.signalstats.YMIN=14
lavfi.signalstats.YLOW=215
lavfi.signalstats.YAVG=224.873
lavfi.signalstats.YHIGH=235
lavfi.signalstats.YMAX=253
lavfi.signalstats.UMIN=110
lavfi.signalstats.ULOW=128
lavfi.signalstats.UAVG=128.849
lavfi.signalstats.UHIGH=129
lavfi.signalstats.UMAX=211
lavfi.signalstats.VMIN=27
lavfi.signalstats.VLOW=126
lavfi.signalstats.VAVG=126.081
lavfi.signalstats.VHIGH=128
lavfi.signalstats.VMAX=206
lavfi.signalstats.SATMIN=0
lavfi.signalstats.SATLOW=0
lavfi.signalstats.SATAVG=3.39797
lavfi.signalstats.SATHIGH=6
lavfi.signalstats.SATMAX=108
lavfi.signalstats.HUEMED=180
lavfi.signalstats.HUEAVG=185.704
lavfi.signalstats.YDIF=0.0297076
lavfi.signalstats.UDIF=0.0207078
lavfi.signalstats.VDIF=0.0247259
lavfi.signalstats.YBITDEPTH=8
lavfi.signalstats.UBITDEPTH=8
lavfi.signalstats.VBITDEPTH=8
frame:42   pts:42      pts_time:8.4
lavfi.signalstats.YMIN=14
lavfi.signalstats.YLOW=215
lavfi.signalstats.YAVG=224.87
lavfi.signalstats.YHIGH=235
lavfi.signalstats.YMAX=253
lavfi.signalstats.UMIN=110
lavfi.signalstats.ULOW=128
lavfi.signalstats.UAVG=128.845
lavfi.signalstats.UHIGH=129
lavfi.signalstats.UMAX=211
lavfi.signalstats.VMIN=27
lavfi.signalstats.VLOW=126
lavfi.signalstats.VAVG=126.075
lavfi.signalstats.VHIGH=128
lavfi.signalstats.VMAX=206
lavfi.signalstats.SATMIN=0
lavfi.signalstats.SATLOW=0
lavfi.signalstats.SATAVG=3.40519
lavfi.signalstats.SATHIGH=6
lavfi.signalstats.SATMAX=108
lavfi.signalstats.HUEMED=180
lavfi.signalstats.HUEAVG=185.727
lavfi.signalstats.YDIF=0.0195646
lavfi.signalstats.UDIF=0.0116789
lavfi.signalstats.VDIF=0.0258842
lavfi.signalstats.YBITDEPTH=8
lavfi.signalstats.UBITDEPTH=8
lavfi.signalstats.VBITDEPTH=8
frame:43   pts:43      pts_time:8.6
lavfi.signalstats.YMIN=14
lavfi.signalstats.YLOW=215
lavfi.signalstats.YAVG=224.871
lavfi.signalstats.YHIGH=235
lavfi.signalstats.YMAX=253
lavfi.signalstats.UMIN=110
lavfi.signalstats.ULOW=128
lavfi.signalstats.UAVG=128.844
lavfi.signalstats.UHIGH=129
lavfi.signalstats.UMAX=211
lavfi.signalstats.VMIN=27
lavfi.signalstats.VLOW=126
lavfi.signalstats.VAVG=126.075
lavfi.signalstats.VHIGH=128
lavfi.signalstats.VMAX=206
lavfi.signalstats.SATMIN=0
lavfi.signalstats.SATLOW=0
lavfi.signalstats.SATAVG=3.40582
lavfi.signalstats.SATHIGH=6
lavfi.signalstats.SATMAX=108
lavfi.signalstats.HUEMED=180
lavfi.signalstats.HUEAVG=185.675
lavfi.signalstats.YDIF=0.00670062
lavfi.signalstats.UDIF=0.00375934
lavfi.signalstats.VDIF=0.0048058
lavfi.signalstats.YBITDEPTH=8
lavfi.signalstats.UBITDEPTH=8
lavfi.signalstats.VBITDEPTH=8
frame:44   pts:44      pts_time:8.8
lavfi.signalstats.YMIN=14
lavfi.signalstats.YLOW=215
lavfi.signalstats.YAVG=224.87
lavfi.signalstats.YHIGH=235
lavfi.signalstats.YMAX=253
lavfi.signalstats.UMIN=110
lavfi.signalstats.ULOW=128
lavfi.signalstats.UAVG=128.844
lavfi.signalstats.UHIGH=129
lavfi.signalstats.UMAX=211
lavfi.signalstats.VMIN=27
lavfi.signalstats.VLOW=126
lavfi.signalstats.VAVG=126.074
lavfi.signalstats.VHIGH=128
lavfi.signalstats.VMAX=206
lavfi.signalstats.SATMIN=0
lavfi.signalstats.SATLOW=0
lavfi.signalstats.SATAVG=3.40626
lavfi.signalstats.SATHIGH=6
lavfi.signalstats.SATMAX=108
lavfi.signalstats.HUEMED=180
lavfi.signalstats.HUEAVG=185.7
lavfi.signalstats.YDIF=0.00410952
lavfi.signalstats.UDIF=0.00111871
lavfi.signalstats.VDIF=0.00134245
lavfi.signalstats.YBITDEPTH=8
lavfi.signalstats.UBITDEPTH=8
lavfi.signalstats.VBITDEPTH=8
frame:45   pts:45      pts_time:9
lavfi.signalstats.YMIN=16
lavfi.signalstats.YLOW=215
lavfi.signalstats.YAVG=224.931
lavfi.signalstats.YHIGH=235
lavfi.signalstats.YMAX=249
lavfi.signalstats.UMIN=106
lavfi.signalstats.ULOW=128
lavfi.signalstats.UAVG=128.842
lavfi.signalstats.UHIGH=129
lavfi.signalstats.UMAX=206
lavfi.signalstats.VMIN=27
lavfi.signalstats.VLOW=126
lavfi.signalstats.VAVG=126.046
lavfi.signalstats.VHIGH=128
lavfi.signalstats.VMAX=208
lavfi.signalstats.SATMIN=0
lavfi.signalstats.SATLOW=0
lavfi.signalstats.SATAVG=3.45004
lavfi.signalstats.SATHIGH=6
lavfi.signalstats.SATMAX=108
lavfi.signalstats.HUEMED=180
lavfi.signalstats.HUEAVG=186.05
lavfi.signalstats.YDIF=0.701381
lavfi.signalstats.UDIF=0.22704
lavfi.signalstats.VDIF=0.369112
lavfi.signalstats.YBITDEPTH=8
lavfi.signalstats.UBITDEPTH=8
lavfi.signalstats.VBITDEPTH=8
frame:46   pts:46      pts_time:9.2
lavfi.signalstats.YMIN=16
lavfi.signalstats.YLOW=215
lavfi.signalstats.YAVG=224.929
lavfi.signalstats.YHIGH=235
lavfi.signalstats.YMAX=249
lavfi.signalstats.UMIN=106
lavfi.signalstats.ULOW=128
lavfi.signalstats.UAVG=128.843
lavfi.signalstats.UHIGH=129
lavfi.signalstats.UMAX=206
lavfi.signalstats.VMIN=27
lavfi.signalstats.VLOW=126
lavfi.signalstats.VAVG=126.045
lavfi.signalstats.VHIGH=128
lavfi.signalstats.VMAX=208
lavfi.signalstats.SATMIN=0
lavfi.signalstats.SATLOW=0
lavfi.signalstats.SATAVG=3.44992
lavfi.signalstats.SATHIGH=6
lavfi.signalstats.SATMAX=108
lavfi.signalstats.HUEMED=180
lavfi.signalstats.HUEAVG=186.049
lavfi.signalstats.YDIF=0.00948866
lavfi.signalstats.UDIF=0.00317667
lavfi.signalstats.VDIF=0.00411593
lavfi.signalstats.YBITDEPTH=8
lavfi.signalstats.UBITDEPTH=8
lavfi.signalstats.VBITDEPTH=8
frame:47   pts:47      pts_time:9.4
lavfi.signalstats.YMIN=16
lavfi.signalstats.YLOW=215
lavfi.signalstats.YAVG=224.928
lavfi.signalstats.YHIGH=235
lavfi.signalstats.YMAX=249
lavfi.signalstats.UMIN=106
lavfi.signalstats.ULOW=128
lavfi.signalstats.UAVG=128.843
lavfi.signalstats.UHIGH=129
lavfi.signalstats.UMAX=206
lavfi.signalstats.VMIN=27
lavfi.signalstats.VLOW=126
lavfi.signalstats.VAVG=126.045
lavfi.signalstats.VHIGH=128
lavfi.signalstats.VMAX=208
lavfi.signalstats.SATMIN=0
lavfi.signalstats.SATLOW=0
lavfi.signalstats.SATAVG=3.45042
lavfi.signalstats.SATHIGH=6
lavfi.signalstats.SATMAX=108
lavfi.signalstats.HUEMED=180
lavfi.signalstats.HUEAVG=186.061
lavfi.signalstats.YDIF=0.00178295
lavfi.signalstats.UDIF=0.000375235
lavfi.signalstats.VDIF=0.000848356
lavfi.signalstats.YBITDEPTH=8
lavfi.signalstats.UBITDEPTH=8
lavfi.signalstats.VBITDEPTH=8
frame:48   pts:48      pts_time:9.6
lavfi.signalstats.YMIN=16
lavfi.signalstats.YLOW=215
lavfi.signalstats.YAVG=224.928
lavfi.signalstats.YHIGH=235
lavfi.signalstats.YMAX=249
lavfi.signalstats.UMIN=106
lavfi.signalstats.ULOW=128
lavfi.signalstats.UAVG=128.843
lavfi.signalstats.UHIGH=129
lavfi.signalstats.UMAX=206
lavfi.signalstats.VMIN=27
lavfi.signalstats.VLOW=126
lavfi.signalstats.VAVG=126.045
lavfi.signalstats.VHIGH=128
lavfi.signalstats.VMAX=208
lavfi.signalstats.SATMIN=0
lavfi.signalstats.SATLOW=0
lavfi.signalstats.SATAVG=3.44999
lavfi.signalstats.SATHIGH=6
lavfi.signalstats.SATMAX=108
lavfi.signalstats.HUEMED=180
lavfi.signalstats.HUEAVG=186.052
lavfi.signalstats.YDIF=0.000318716
lavfi.signalstats.UDIF=0.000452146
lavfi.signalstats.VDIF=0.000834372
lavfi.signalstats.YBITDEPTH=8
lavfi.signalstats.UBITDEPTH=8
lavfi.signalstats.VBITDEPTH=8
frame:49   pts:49      pts_time:9.8
lavfi.signalstats.YMIN=16
lavfi.signalstats.YLOW=215
lavfi.signalstats.YAVG=224.928
lavfi.signalstats.YHIGH=235
lavfi.signalstats.YMAX=249
lavfi.signalstats.UMIN=106
lavfi.signalstats.ULOW=128
lavfi.signalstats.UAVG=128.843
lavfi.signalstats.UHIGH=129
lavfi.signalstats.UMAX=206
lavfi.signalstats.VMIN=27
lavfi.signalstats.VLOW=126
lavfi.signalstats.VAVG=126.045
lavfi.signalstats.VHIGH=128
lavfi.signalstats.VMAX=208
lavfi.signalstats.SATMIN=0
lavfi.signalstats.SATLOW=0
lavfi.signalstats.SATAVG=3.45042
lavfi.signalstats.SATHIGH=6
lavfi.signalstats.SATMAX=108
lavfi.signalstats.HUEMED=180
lavfi.signalstats.HUEAVG=186.061
lavfi.signalstats.YDIF=0.000262198
lavfi.signalstats.UDIF=0.000452146
lavfi.signalstats.VDIF=0.000839034
lavfi.signalstats.YBITDEPTH=8
lavfi.signalstats.UBITDEPTH=8
lavfi.signalstats.VBITDEPTH=8
frame:50   pts:50      pts_time:10
lavfi.signalstats.YMIN=16
lavfi.signalstats.YLOW=215
lavfi.signalstats.YAVG=224.928
lavfi.signalstats.YHIGH=235
lavfi.signalstats.YMAX=249
lavfi.signalstats.UMIN=106
lavfi.signalstats.ULOW=128
lavfi.signalstats.UAVG=128.843
lavfi.signalstats.UHIGH=129
lavfi.signalstats.UMAX=206
lavfi.signalstats.VMIN=27
lavfi.signalstats.VLOW=126
lavfi.signalstats.VAVG=126.045
lavfi.signalstats.VHIGH=128
lavfi.signalstats.VMAX=208
lavfi.signalstats.SATMIN=0
lavfi.signalstats.SATLOW=0
lavfi.signalstats.SATAVG=3.44998
lavfi.signalstats.SATHIGH=6
lavfi.signalstats.SATMAX=108
lavfi.signalstats.HUEMED=180
lavfi.signalstats.HUEAVG=186.052
lavfi.signalstats.YDIF=0.000319299
lavfi.signalstats.UDIF=0.000456807
lavfi.signalstats.VDIF=0.000839034
lavfi.signalstats.YBITDEPTH=8
lavfi.signalstats.UBITDEPTH=8
lavfi.signalstats.VBITDEPTH=8
frame:51   pts:51      pts_time:10.2
lavfi.signalstats.YMIN=16
lavfi.signalstats.YLOW=215
lavfi.signalstats.YAVG=224.928
lavfi.signalstats.YHIGH=235
lavfi.signalstats.YMAX=249
lavfi.signalstats.UMIN=106
lavfi.signalstats.ULOW=128
lavfi.signalstats.UAVG=128.843
lavfi.signalstats.UHIGH=129
lavfi.signalstats.UMAX=206
lavfi.signalstats.VMIN=27
lavfi.signalstats.VLOW=126
lavfi.signalstats.VAVG=126.045
lavfi.signalstats.VHIGH=128
lavfi.signalstats.VMAX=208
lavfi.signalstats.SATMIN=0
lavfi.signalstats.SATLOW=0
lavfi.signalstats.SATAVG=3.45054
lavfi.signalstats.SATHIGH=6
lavfi.signalstats.SATMAX=108
lavfi.signalstats.HUEMED=180
lavfi.signalstats.HUEAVG=186.061
lavfi.signalstats.YDIF=0.000431753
lavfi.signalstats.UDIF=0.000459138
lavfi.signalstats.VDIF=0.000967219
lavfi.signalstats.YBITDEPTH=8
lavfi.signalstats.UBITDEPTH=8
lavfi.signalstats.VBITDEPTH=8
frame:52   pts:52      pts_time:10.4
lavfi.signalstats.YMIN=16
lavfi.signalstats.YLOW=215
lavfi.signalstats.YAVG=224.928
lavfi.signalstats.YHIGH=235
lavfi.signalstats.YMAX=249
lavfi.signalstats.UMIN=106
lavfi.signalstats.ULOW=128
lavfi.signalstats.UAVG=128.843
lavfi.signalstats.UHIGH=129
lavfi.signalstats.UMAX=206
lavfi.signalstats.VMIN=27
lavfi.signalstats.VLOW=126
lavfi.signalstats.VAVG=126.045
lavfi.signalstats.VHIGH=128
lavfi.signalstats.VMAX=208
lavfi.signalstats.SATMIN=0
lavfi.signalstats.SATLOW=0
lavfi.signalstats.SATAVG=3.45011
lavfi.signalstats.SATHIGH=6
lavfi.signalstats.SATMAX=108
lavfi.signalstats.HUEMED=180
lavfi.signalstats.HUEAVG=186.052
lavfi.signalstats.YDIF=0.000262198
lavfi.signalstats.UDIF=0.000452146
lavfi.signalstats.VDIF=0.000839034
lavfi.signalstats.YBITDEPTH=8
lavfi.signalstats.UBITDEPTH=8
lavfi.signalstats.VBITDEPTH=8
frame:53   pts:53      pts_time:10.6
lavfi.signalstats.YMIN=16
lavfi.signalstats.YLOW=215
lavfi.signalstats.YAVG=224.928
lavfi.signalstats.YHIGH=235
lavfi.signalstats.YMAX=249
lavfi.signalstats.UMIN=106
lavfi.signalstats.ULOW=128
lavfi.signalstats.UAVG=128.843
lavfi.signalstats.UHIGH=129
lavfi.signalstats.UMAX=206
lavfi.signalstats.VMIN=27
lavfi.signalstats.VLOW=126
lavfi.signalstats.VAVG=126.045
lavfi.signalstats.VHIGH=128
lavfi.signalstats.VMAX=208
lavfi.signalstats.SATMIN=0
lavfi.signalstats.SATLOW=0
lavfi.signalstats.SATAVG=3.45054
lavfi.signalstats.SATHIGH=6
lavfi.signalstats.SATMAX=108
lavfi.signalstats.HUEMED=180
lavfi.signalstats.HUEAVG=186.061
lavfi.signalstats.YDIF=0.000262198
lavfi.signalstats.UDIF=0.000452146
lavfi.signalstats.VDIF=0.000839034
lavfi.signalstats.YBITDEPTH=8
lavfi.signalstats.UBITDEPTH=8
lavfi.signalstats.VBITDEPTH=8
frame:54   pts:54      pts_time:10.8
lavfi.signalstats.YMIN=16
lavfi.signalstats.YLOW=215
lavfi.signalstats.YAVG=224.928
lavfi.signalstats.YHIGH=235
lavfi.signalstats.YMAX=249
lavfi.signalstats.UMIN=106
lavfi.signalstats.ULOW=128
lavfi.signalstats.UAVG=128.843
lavfi.signalstats.UHIGH=129
lavfi.signalstats.UMAX=206
lavfi.signalstats.VMIN=27
lavfi.signalstats.VLOW=126
lavfi.signalstats.VAVG=126.045
lavfi.signalstats.VHIGH=128
lavfi.signalstats.VMAX=208
lavfi.signalstats.SATMIN=0
lavfi.signalstats.SATLOW=0
lavfi.signalstats.SATAVG=3.45011
lavfi.signalstats.SATHIGH=6
lavfi.signalstats.SATMAX=108
lavfi.signalstats.HUEMED=180
lavfi.signalstats.HUEAVG=186.052
lavfi.signalstats.YDIF=0.00027793
lavfi.signalstats.UDIF=0.000452146
lavfi.signalstats.VDIF=0.000839034
lavfi.signalstats.YBITDEPTH=8
lavfi.signalstats.UBITDEPTH=8
lavfi.signalstats.VBITDEPTH=8
